DBRep_DrawableShape

CASCADE Topology V1, (c) Matra-Datavision
Locations 10
1
              1               0               0               0 
              0               1               0               0 
              0               0               1               0 
1
              1               0               0             -15 
              0               1               0             -15 
              0               0               1             -15 
2  1 -1 2 -1 0
1
              1               0               0               0 
              0               1               0               0 
              0               0               1              -2 
1
              1               0               0               0 
              0               1               0               0 
              0               0               1               0 
2  4 1 5 1 0
2  1 -1 5 -1 4 -1 0
1
              1               0               0               0 
              0               1               0               0 
              0               0               1               2 
2  8 1 5 1 0
2  1 -1 5 -1 8 -1 0
Curve2ds 36
1 0 0 1 0 
1 0 0 1 0 
1 30 0 0 -1 
1 0 0 0 1 
1 0 -30 1 0 
1 0 0 1 0 
1 0 0 0 -1 
1 0 0 0 1 
1 0 0 0 1 
1 0 0 1 0 
1 0 30 1 0 
1 0 0 1 0 
1 30 0 0 1 
1 0 0 1 0 
1 0 30 1 0 
1 30 0 0 1 
1 30 0 0 1 
1 30 0 0 -1 
1 0 0 0 1 
1 0 30 1 0 
1 0 30 1 0 
1 0 -30 1 0 
1 30 0 0 1 
1 0 0 0 -1 
1 0 1 1 0 
2 0 0 1 0 -0 1 10
1 6.2831853071795862 -0 0 1 
1 0 -0 0 1 
1 0 0 1 0 
2 0 0 1 0 -0 1 10
1 0 1 1 0 
2 0 0 1 0 -0 1 10
1 6.2831853071795862 -0 0 1 
1 0 -0 0 1 
1 0 0 1 0 
2 0 0 1 0 -0 1 10
Curves 18
1 0 0 0 0 0 1 
1 0 0 30 -0 1 0 
1 0 30 0 0 0 1 
1 0 0 0 -0 1 0 
1 0 0 0 1 0 -0 
1 30 0 0 0 0 1 
1 0 0 30 1 0 -0 
1 0 30 30 1 0 -0 
1 30 0 30 -0 1 0 
1 0 30 0 1 0 -0 
1 30 30 0 0 0 1 
1 30 0 0 -0 1 0 
2 0 0 1 0 0 1 1 0 -0 -0 1 0 10
1 10 -2.45e-15 0 0 0 1 
2 0 0 0 0 0 1 1 0 -0 -0 1 0 10
2 0 0 1 0 0 1 1 0 -0 -0 1 0 10
1 10 -2.45e-15 0 0 0 1 
2 0 0 0 0 0 1 1 0 -0 -0 1 0 10
Polygon3D 0
PolygonOnTriangulations 36
2 1 2 
p 0.060000000894 1 0 30 
2 1 4 
p 0.060000000894 1 0 30 
2 2 3 
p 0.060000000894 1 0 30 
2 1 2 
p 0.060000000894 1 0 30 
2 4 3 
p 0.060000000894 1 0 30 
2 1 4 
p 0.060000000894 1 0 30 
2 1 4 
p 0.060000000894 1 0 30 
2 1 2 
p 0.060000000894 1 0 30 
2 1 2 
p 0.060000000894 1 0 30 
2 1 4 
p 0.060000000894 1 0 30 
2 2 3 
p 0.060000000894 1 0 30 
2 1 2 
p 0.060000000894 1 0 30 
2 4 3 
p 0.060000000894 1 0 30 
2 1 4 
p 0.060000000894 1 0 30 
2 2 3 
p 0.060000000894 1 0 30 
2 4 3 
p 0.060000000894 1 0 30 
2 4 3 
p 0.060000000894 1 0 30 
2 2 3 
p 0.060000000894 1 0 30 
2 1 2 
p 0.060000000894 1 0 30 
2 2 3 
p 0.060000000894 1 0 30 
2 2 3 
p 0.060000000894 1 0 30 
2 4 3 
p 0.060000000894 1 0 30 
2 4 3 
p 0.060000000894 1 0 30 
2 1 4 
p 0.060000000894 1 0 30 
42 1 3 4 5 6 7 8 9 10 11 12 13 14 15 16 17 18 19 20 21 22 23 24 25 26 27 28 29 30 31 32 33 34 35 36 37 38 39 40 41 42 2 
p 0.060000000894 1 0 0.153248422126331 0.306496844252663 0.459745266378994 0.612993688505326 0.766242110631657 0.919490532757988 1.07273895488432 1.22598737701065 1.37923579913698 1.53248422126331 1.68573264338964 1.83898106551598 1.99222948764231 2.14547790976864 2.29872633189497 2.4519747540213 2.60522317614763 2.75847159827396 2.9117200204003 3.06496844252663 3.21821686465296 3.37146528677929 3.52471370890562 3.67796213103195 3.83121055315828 3.98445897528461 4.13770739741095 4.29095581953728 4.44420424166361 4.59745266378994 4.75070108591627 4.9039495080426 5.05719793016894 5.21044635229527 5.3636947744216 5.51694319654793 5.67019161867426 5.82344004080059 5.97668846292693 6.12993688505326 6.28318530717959 
42 1 2 3 4 5 6 7 8 9 10 11 12 13 14 15 16 17 18 19 20 21 22 23 24 25 26 27 28 29 30 31 32 33 34 35 36 37 38 39 40 41 1 
p 0.060000000894 1 0 0.153248422126331 0.306496844252663 0.459745266378994 0.612993688505326 0.766242110631657 0.919490532757988 1.07273895488432 1.22598737701065 1.37923579913698 1.53248422126331 1.68573264338964 1.83898106551598 1.99222948764231 2.14547790976864 2.29872633189497 2.4519747540213 2.60522317614763 2.75847159827396 2.9117200204003 3.06496844252663 3.21821686465296 3.37146528677929 3.52471370890562 3.67796213103195 3.83121055315828 3.98445897528461 4.13770739741095 4.29095581953728 4.44420424166361 4.59745266378994 4.75070108591627 4.9039495080426 5.05719793016894 5.21044635229527 5.3636947744216 5.51694319654793 5.67019161867426 5.82344004080059 5.97668846292693 6.12993688505326 6.28318530717959 
2 43 2 
p 0.060000000894 1 0 1 
2 44 1 
p 0.060000000894 1 0 1 
42 44 45 46 47 48 49 50 51 52 53 54 55 56 57 58 59 60 61 62 63 64 65 66 67 68 69 70 71 72 73 74 75 76 77 78 79 80 81 82 83 84 43 
p 0.060000000894 1 0 0.153248422126331 0.306496844252663 0.459745266378994 0.612993688505326 0.766242110631657 0.919490532757988 1.07273895488432 1.22598737701065 1.37923579913698 1.53248422126331 1.68573264338964 1.83898106551598 1.99222948764231 2.14547790976864 2.29872633189497 2.4519747540213 2.60522317614763 2.75847159827396 2.9117200204003 3.06496844252663 3.21821686465296 3.37146528677929 3.52471370890562 3.67796213103195 3.83121055315828 3.98445897528461 4.13770739741095 4.29095581953728 4.44420424166361 4.59745266378994 4.75070108591627 4.9039495080426 5.05719793016894 5.21044635229527 5.3636947744216 5.51694319654793 5.67019161867426 5.82344004080059 5.97668846292693 6.12993688505326 6.28318530717959 
42 1 2 3 4 5 6 7 8 9 10 11 12 13 14 15 16 17 18 19 20 21 22 23 24 25 26 27 28 29 30 31 32 33 34 35 36 37 38 39 40 41 1 
p 0.060000000894 1 0 0.153248422126331 0.306496844252663 0.459745266378994 0.612993688505326 0.766242110631657 0.919490532757988 1.07273895488432 1.22598737701065 1.37923579913698 1.53248422126331 1.68573264338964 1.83898106551598 1.99222948764231 2.14547790976864 2.29872633189497 2.4519747540213 2.60522317614763 2.75847159827396 2.9117200204003 3.06496844252663 3.21821686465296 3.37146528677929 3.52471370890562 3.67796213103195 3.83121055315828 3.98445897528461 4.13770739741095 4.29095581953728 4.44420424166361 4.59745266378994 4.75070108591627 4.9039495080426 5.05719793016894 5.21044635229527 5.3636947744216 5.51694319654793 5.67019161867426 5.82344004080059 5.97668846292693 6.12993688505326 6.28318530717959 
42 1 3 4 5 6 7 8 9 10 11 12 13 14 15 16 17 18 19 20 21 22 23 24 25 26 27 28 29 30 31 32 33 34 35 36 37 38 39 40 41 42 2 
p 0.060000000894 1 0 0.153248422126331 0.306496844252663 0.459745266378994 0.612993688505326 0.766242110631657 0.919490532757988 1.07273895488432 1.22598737701065 1.37923579913698 1.53248422126331 1.68573264338964 1.83898106551598 1.99222948764231 2.14547790976864 2.29872633189497 2.4519747540213 2.60522317614763 2.75847159827396 2.9117200204003 3.06496844252663 3.21821686465296 3.37146528677929 3.52471370890562 3.67796213103195 3.83121055315828 3.98445897528461 4.13770739741095 4.29095581953728 4.44420424166361 4.59745266378994 4.75070108591627 4.9039495080426 5.05719793016894 5.21044635229527 5.3636947744216 5.51694319654793 5.67019161867426 5.82344004080059 5.97668846292693 6.12993688505326 6.28318530717959 
42 1 2 3 4 5 6 7 8 9 10 11 12 13 14 15 16 17 18 19 20 21 22 23 24 25 26 27 28 29 30 31 32 33 34 35 36 37 38 39 40 41 1 
p 0.060000000894 1 0 0.153248422126331 0.306496844252663 0.459745266378994 0.612993688505326 0.766242110631657 0.919490532757988 1.07273895488432 1.22598737701065 1.37923579913698 1.53248422126331 1.68573264338964 1.83898106551598 1.99222948764231 2.14547790976864 2.29872633189497 2.4519747540213 2.60522317614763 2.75847159827396 2.9117200204003 3.06496844252663 3.21821686465296 3.37146528677929 3.52471370890562 3.67796213103195 3.83121055315828 3.98445897528461 4.13770739741095 4.29095581953728 4.44420424166361 4.59745266378994 4.75070108591627 4.9039495080426 5.05719793016894 5.21044635229527 5.3636947744216 5.51694319654793 5.67019161867426 5.82344004080059 5.97668846292693 6.12993688505326 6.28318530717959 
2 43 2 
p 0.060000000894 1 0 1 
2 44 1 
p 0.060000000894 1 0 1 
42 44 45 46 47 48 49 50 51 52 53 54 55 56 57 58 59 60 61 62 63 64 65 66 67 68 69 70 71 72 73 74 75 76 77 78 79 80 81 82 83 84 43 
p 0.060000000894 1 0 0.153248422126331 0.306496844252663 0.459745266378994 0.612993688505326 0.766242110631657 0.919490532757988 1.07273895488432 1.22598737701065 1.37923579913698 1.53248422126331 1.68573264338964 1.83898106551598 1.99222948764231 2.14547790976864 2.29872633189497 2.4519747540213 2.60522317614763 2.75847159827396 2.9117200204003 3.06496844252663 3.21821686465296 3.37146528677929 3.52471370890562 3.67796213103195 3.83121055315828 3.98445897528461 4.13770739741095 4.29095581953728 4.44420424166361 4.59745266378994 4.75070108591627 4.9039495080426 5.05719793016894 5.21044635229527 5.3636947744216 5.51694319654793 5.67019161867426 5.82344004080059 5.97668846292693 6.12993688505326 6.28318530717959 
42 1 2 3 4 5 6 7 8 9 10 11 12 13 14 15 16 17 18 19 20 21 22 23 24 25 26 27 28 29 30 31 32 33 34 35 36 37 38 39 40 41 1 
p 0.060000000894 1 0 0.153248422126331 0.306496844252663 0.459745266378994 0.612993688505326 0.766242110631657 0.919490532757988 1.07273895488432 1.22598737701065 1.37923579913698 1.53248422126331 1.68573264338964 1.83898106551598 1.99222948764231 2.14547790976864 2.29872633189497 2.4519747540213 2.60522317614763 2.75847159827396 2.9117200204003 3.06496844252663 3.21821686465296 3.37146528677929 3.52471370890562 3.67796213103195 3.83121055315828 3.98445897528461 4.13770739741095 4.29095581953728 4.44420424166361 4.59745266378994 4.75070108591627 4.9039495080426 5.05719793016894 5.21044635229527 5.3636947744216 5.51694319654793 5.67019161867426 5.82344004080059 5.97668846292693 6.12993688505326 6.28318530717959 
Surfaces 12
1 0 0 0 1 0 -0 0 0 1 0 -1 0 
1 0 0 0 -0 1 0 0 0 1 1 0 -0 
1 0 0 30 0 0 1 1 0 -0 -0 1 0 
1 0 30 0 -0 1 0 0 0 1 1 0 -0 
1 0 0 0 0 0 1 1 0 -0 -0 1 0 
1 30 0 0 1 0 -0 0 0 1 0 -1 0 
2 0 0 0 0 0 1 1 0 -0 -0 1 0 10
1 0 0 1 0 0 1 1 0 -0 -0 1 0 
1 0 0 0 0 0 1 1 0 -0 -0 1 0 
2 0 0 0 0 0 1 1 0 -0 -0 1 0 10
1 0 0 1 0 0 1 1 0 -0 -0 1 0 
1 0 0 0 0 0 1 1 0 -0 -0 1 0 
Triangulations 12
4 2 1 0
0 0 0 0 0 30 0 30 30 0 30 0 0 0 30 0 30 -30 0 -30 2 4 3 2 1 4 
4 2 1 0
0 0 0 30 0 0 30 0 30 0 0 30 0 0 0 30 30 30 30 0 3 2 1 3 1 4 
4 2 1 0
0 0 30 0 30 30 30 30 30 30 0 30 0 0 0 30 30 30 30 0 3 2 1 3 1 4 
4 2 1 0
0 30 0 30 30 0 30 30 30 0 30 30 0 0 0 30 30 30 30 0 3 2 1 3 1 4 
4 2 1 0
0 0 0 0 30 0 30 30 0 30 0 0 0 0 0 30 30 30 30 0 3 2 1 3 1 4 
4 2 1 0
30 0 0 30 0 30 30 30 30 30 30 0 0 0 30 0 30 -30 0 -30 2 4 3 2 1 4 
84 82 1 0.0293419881625963
10 -2e-15 1 10 -2e-15 1 9.88280423780349 1.52649284218874 1 9.53396392054931 3.01720598595192 1 8.96165556961056 4.4371983786696 1 8.17929360766718 5.75318660218621 1 7.20521593600787 6.93432500792242 1 6.06225410966638 7.95292871273427 1 4.77719818512263 8.78512250910942 1 3.38016878408503 9.41140047979562 1 1.90391109164668 9.81708319996855 1 0.383027336900355 9.9926618105081 1 -1.146834253984 9.93402089759675 1 -2.64981502196661 9.64253495453141 1 -4.09068637171339 9.1250361647655 1 -5.43567550001221 8.3936542613195 1 -6.65325700165565 7.46553221611963 1 -7.71489179821942 6.3624244232656 1 -8.59569606987201 5.11018679447111 1 -9.27502451102094 3.7381707184077 1 -9.73695423877779 2.27853508903139 1 -9.9706580118374 0.765492528364968 1 -9.97065801183741 -0.765492528364944 1 -9.73695423877779 -2.27853508903136 1 -9.27502451102095 -3.73817071840767 1 -8.59569606987202 -5.11018679447109 1 -7.71489179821944 -6.36242442326559 1 -6.65325700165567 -7.46553221611961 1 -5.43567550001222 -8.39365426131949 1 -4.09068637171341 -9.1250361647655 1 -2.64981502196662 -9.64253495453141 1 -1.14683425398401 -9.93402089759675 1 0.383027336900353 -9.9926618105081 1 1.90391109164669 -9.81708319996855 1 3.38016878408503 -9.41140047979561 1 4.77719818512264 -8.78512250910942 1 6.06225410966639 -7.95292871273426 1 7.20521593600788 -6.93432500792241 1 8.17929360766719 -5.75318660218619 1 8.96165556961057 -4.43719837866958 1 9.53396392054931 -3.0172059859519 1 9.88280423780349 -1.52649284218872 1 10 -2e-15 0 10 -2e-15 0 9.88280423780349 1.52649284218874 0 9.53396392054931 3.01720598595192 0 8.96165556961056 4.4371983786696 0 8.17929360766718 5.75318660218621 0 7.20521593600787 6.93432500792242 0 6.06225410966638 7.95292871273427 0 4.77719818512263 8.78512250910942 0 3.38016878408503 9.41140047979562 0 1.90391109164668 9.81708319996855 0 0.383027336900355 9.9926618105081 0 -1.146834253984 9.93402089759675 0 -2.64981502196661 9.64253495453141 0 -4.09068637171339 9.1250361647655 0 -5.43567550001221 8.3936542613195 0 -6.65325700165565 7.46553221611963 0 -7.71489179821942 6.3624244232656 0 -8.59569606987201 5.11018679447111 0 -9.27502451102094 3.7381707184077 0 -9.73695423877779 2.27853508903139 0 -9.9706580118374 0.765492528364968 0 -9.97065801183741 -0.765492528364944 0 -9.73695423877779 -2.27853508903136 0 -9.27502451102095 -3.73817071840767 0 -8.59569606987202 -5.11018679447109 0 -7.71489179821944 -6.36242442326559 0 -6.65325700165567 -7.46553221611961 0 -5.43567550001222 -8.39365426131949 0 -4.09068637171341 -9.1250361647655 0 -2.64981502196662 -9.64253495453141 0 -1.14683425398401 -9.93402089759675 0 0.383027336900353 -9.9926618105081 0 1.90391109164669 -9.81708319996855 0 3.38016878408503 -9.41140047979561 0 4.77719818512264 -8.78512250910942 0 6.06225410966639 -7.95292871273426 0 7.20521593600788 -6.93432500792241 0 8.17929360766719 -5.75318660218619 0 8.96165556961057 -4.43719837866958 0 9.53396392054931 -3.0172059859519 0 9.88280423780349 -1.52649284218872 0 0 1 6.28318530717959 1 0.153248422126331 1 0.306496844252663 1 0.459745266378994 1 0.612993688505326 1 0.766242110631657 1 0.919490532757988 1 1.07273895488432 1 1.22598737701065 1 1.37923579913698 1 1.53248422126331 1 1.68573264338964 1 1.83898106551598 1 1.99222948764231 1 2.14547790976864 1 2.29872633189497 1 2.4519747540213 1 2.60522317614763 1 2.75847159827396 1 2.9117200204003 1 3.06496844252663 1 3.21821686465296 1 3.37146528677929 1 3.52471370890562 1 3.67796213103195 1 3.83121055315828 1 3.98445897528461 1 4.13770739741095 1 4.29095581953728 1 4.44420424166361 1 4.59745266378994 1 4.75070108591627 1 4.9039495080426 1 5.05719793016894 1 5.21044635229527 1 5.3636947744216 1 5.51694319654793 1 5.67019161867426 1 5.82344004080059 1 5.97668846292693 1 6.12993688505326 1 6.28318530717959 0 0 0 0.153248422126331 0 0.306496844252663 0 0.459745266378994 0 0.612993688505326 0 0.766242110631657 0 0.919490532757988 0 1.07273895488432 0 1.22598737701065 0 1.37923579913698 0 1.53248422126331 0 1.68573264338964 0 1.83898106551598 0 1.99222948764231 0 2.14547790976864 0 2.29872633189497 0 2.4519747540213 0 2.60522317614763 0 2.75847159827396 0 2.9117200204003 0 3.06496844252663 0 3.21821686465296 0 3.37146528677929 0 3.52471370890562 0 3.67796213103195 0 3.83121055315828 0 3.98445897528461 0 4.13770739741095 0 4.29095581953728 0 4.44420424166361 0 4.59745266378994 0 4.75070108591627 0 4.9039495080426 0 5.05719793016894 0 5.21044635229527 0 5.3636947744216 0 5.51694319654793 0 5.67019161867426 0 5.82344004080059 0 5.97668846292693 0 6.12993688505326 0 21 62 63 21 20 62 42 41 83 42 83 84 22 63 64 2 42 84 2 84 43 22 21 63 23 64 65 3 44 45 3 1 44 23 22 64 24 65 66 4 45 46 24 23 65 4 3 45 25 66 67 25 24 66 5 46 47 5 4 46 26 67 68 26 25 67 6 5 47 6 47 48 27 68 69 27 26 68 7 6 48 7 48 49 28 69 70 28 27 69 8 7 49 8 49 50 29 70 71 29 28 70 9 8 50 9 50 51 30 71 72 10 9 51 30 29 71 10 51 52 31 30 72 31 72 73 11 10 52 11 52 53 32 31 73 32 73 74 12 11 53 12 53 54 33 32 74 33 74 75 13 12 54 13 54 55 34 33 75 34 75 76 14 13 55 14 55 56 35 34 76 35 76 77 15 14 56 15 56 57 36 35 77 36 77 78 16 15 57 16 57 58 37 36 78 37 78 79 17 16 58 17 58 59 38 37 79 38 79 80 18 17 59 18 59 60 39 38 80 39 80 81 19 18 60 19 60 61 40 39 81 40 81 82 20 61 62 20 19 61 41 40 82 41 82 83 
41 39 1 1.78329573330416e-15
10 -2e-15 1 9.88280423780349 1.52649284218874 1 9.53396392054931 3.01720598595192 1 8.96165556961056 4.4371983786696 1 8.17929360766718 5.75318660218621 1 7.20521593600787 6.93432500792242 1 6.06225410966638 7.95292871273427 1 4.77719818512263 8.78512250910942 1 3.38016878408503 9.41140047979562 1 1.90391109164668 9.81708319996855 1 0.383027336900355 9.9926618105081 1 -1.146834253984 9.93402089759675 1 -2.64981502196661 9.64253495453141 1 -4.09068637171339 9.1250361647655 1 -5.43567550001221 8.3936542613195 1 -6.65325700165565 7.46553221611963 1 -7.71489179821942 6.3624244232656 1 -8.59569606987201 5.11018679447111 1 -9.27502451102094 3.7381707184077 1 -9.73695423877779 2.27853508903139 1 -9.9706580118374 0.765492528364968 1 -9.97065801183741 -0.765492528364944 1 -9.73695423877779 -2.27853508903136 1 -9.27502451102095 -3.73817071840767 1 -8.59569606987202 -5.11018679447109 1 -7.71489179821944 -6.36242442326559 1 -6.65325700165567 -7.46553221611961 1 -5.43567550001222 -8.39365426131949 1 -4.09068637171341 -9.1250361647655 1 -2.64981502196662 -9.64253495453141 1 -1.14683425398401 -9.93402089759675 1 0.383027336900353 -9.9926618105081 1 1.90391109164669 -9.81708319996855 1 3.38016878408503 -9.41140047979561 1 4.77719818512264 -8.78512250910942 1 6.06225410966639 -7.95292871273426 1 7.20521593600788 -6.93432500792241 1 8.17929360766719 -5.75318660218619 1 8.96165556961057 -4.43719837866958 1 9.53396392054931 -3.0172059859519 1 9.88280423780349 -1.52649284218872 1 10 0 9.88280423780349 1.52649284218874 9.53396392054931 3.01720598595192 8.96165556961056 4.4371983786696 8.17929360766718 5.75318660218621 7.20521593600787 6.93432500792242 6.06225410966638 7.95292871273427 4.77719818512263 8.78512250910942 3.38016878408503 9.41140047979562 1.90391109164668 9.81708319996855 0.383027336900355 9.9926618105081 -1.146834253984 9.93402089759675 -2.64981502196661 9.64253495453141 -4.09068637171339 9.1250361647655 -5.43567550001221 8.3936542613195 -6.65325700165565 7.46553221611963 -7.71489179821942 6.3624244232656 -8.59569606987201 5.11018679447111 -9.27502451102094 3.7381707184077 -9.73695423877779 2.27853508903139 -9.9706580118374 0.765492528364968 -9.97065801183741 -0.765492528364943 -9.73695423877779 -2.27853508903136 -9.27502451102095 -3.73817071840767 -8.59569606987202 -5.11018679447109 -7.71489179821944 -6.36242442326559 -6.65325700165567 -7.46553221611961 -5.43567550001222 -8.39365426131949 -4.09068637171341 -9.1250361647655 -2.64981502196662 -9.64253495453141 -1.14683425398401 -9.93402089759675 0.383027336900353 -9.9926618105081 1.90391109164669 -9.81708319996855 3.38016878408503 -9.41140047979561 4.77719818512264 -8.78512250910942 6.06225410966639 -7.95292871273426 7.20521593600788 -6.93432500792241 8.17929360766719 -5.75318660218619 8.96165556961057 -4.43719837866958 9.53396392054931 -3.0172059859519 9.88280423780349 -1.52649284218872 10 11 12 10 14 34 10 12 14 3 41 2 29 25 26 29 26 27 29 27 28 8 9 10 6 39 41 6 3 4 6 4 5 6 8 10 6 7 8 6 10 34 6 38 39 6 34 38 6 41 3 22 23 24 32 30 31 21 24 25 21 22 24 33 29 30 33 30 32 19 20 21 19 25 29 19 21 25 16 17 18 38 34 35 38 35 36 38 36 37 15 18 19 15 19 29 15 16 18 14 33 34 14 29 33 14 15 29 41 39 40 12 13 14 2 41 1 
41 39 1 1.78329573330416e-15
10 -2e-15 0 9.88280423780349 1.52649284218874 0 9.53396392054931 3.01720598595192 0 8.96165556961056 4.4371983786696 0 8.17929360766718 5.75318660218621 0 7.20521593600787 6.93432500792242 0 6.06225410966638 7.95292871273427 0 4.77719818512263 8.78512250910942 0 3.38016878408503 9.41140047979562 0 1.90391109164668 9.81708319996855 0 0.383027336900355 9.9926618105081 0 -1.146834253984 9.93402089759675 0 -2.64981502196661 9.64253495453141 0 -4.09068637171339 9.1250361647655 0 -5.43567550001221 8.3936542613195 0 -6.65325700165565 7.46553221611963 0 -7.71489179821942 6.3624244232656 0 -8.59569606987201 5.11018679447111 0 -9.27502451102094 3.7381707184077 0 -9.73695423877779 2.27853508903139 0 -9.9706580118374 0.765492528364968 0 -9.97065801183741 -0.765492528364944 0 -9.73695423877779 -2.27853508903136 0 -9.27502451102095 -3.73817071840767 0 -8.59569606987202 -5.11018679447109 0 -7.71489179821944 -6.36242442326559 0 -6.65325700165567 -7.46553221611961 0 -5.43567550001222 -8.39365426131949 0 -4.09068637171341 -9.1250361647655 0 -2.64981502196662 -9.64253495453141 0 -1.14683425398401 -9.93402089759675 0 0.383027336900353 -9.9926618105081 0 1.90391109164669 -9.81708319996855 0 3.38016878408503 -9.41140047979561 0 4.77719818512264 -8.78512250910942 0 6.06225410966639 -7.95292871273426 0 7.20521593600788 -6.93432500792241 0 8.17929360766719 -5.75318660218619 0 8.96165556961057 -4.43719837866958 0 9.53396392054931 -3.0172059859519 0 9.88280423780349 -1.52649284218872 0 10 0 9.88280423780349 1.52649284218874 9.53396392054931 3.01720598595192 8.96165556961056 4.4371983786696 8.17929360766718 5.75318660218621 7.20521593600787 6.93432500792242 6.06225410966638 7.95292871273427 4.77719818512263 8.78512250910942 3.38016878408503 9.41140047979562 1.90391109164668 9.81708319996855 0.383027336900355 9.9926618105081 -1.146834253984 9.93402089759675 -2.64981502196661 9.64253495453141 -4.09068637171339 9.1250361647655 -5.43567550001221 8.3936542613195 -6.65325700165565 7.46553221611963 -7.71489179821942 6.3624244232656 -8.59569606987201 5.11018679447111 -9.27502451102094 3.7381707184077 -9.73695423877779 2.27853508903139 -9.9706580118374 0.765492528364968 -9.97065801183741 -0.765492528364943 -9.73695423877779 -2.27853508903136 -9.27502451102095 -3.73817071840767 -8.59569606987202 -5.11018679447109 -7.71489179821944 -6.36242442326559 -6.65325700165567 -7.46553221611961 -5.43567550001222 -8.39365426131949 -4.09068637171341 -9.1250361647655 -2.64981502196662 -9.64253495453141 -1.14683425398401 -9.93402089759675 0.383027336900353 -9.9926618105081 1.90391109164669 -9.81708319996855 3.38016878408503 -9.41140047979561 4.77719818512264 -8.78512250910942 6.06225410966639 -7.95292871273426 7.20521593600788 -6.93432500792241 8.17929360766719 -5.75318660218619 8.96165556961057 -4.43719837866958 9.53396392054931 -3.0172059859519 9.88280423780349 -1.52649284218872 10 11 12 10 14 34 10 12 14 3 41 2 29 25 26 29 26 27 29 27 28 8 9 10 6 39 41 6 3 4 6 4 5 6 8 10 6 7 8 6 10 34 6 38 39 6 34 38 6 41 3 22 23 24 32 30 31 21 24 25 21 22 24 33 29 30 33 30 32 19 20 21 19 25 29 19 21 25 16 17 18 38 34 35 38 35 36 38 36 37 15 18 19 15 19 29 15 16 18 14 33 34 14 29 33 14 15 29 41 39 40 12 13 14 2 41 1 
84 82 1 0.0293419881625963
10 -2e-15 1 10 -2e-15 1 9.88280423780349 1.52649284218874 1 9.53396392054931 3.01720598595192 1 8.96165556961056 4.4371983786696 1 8.17929360766718 5.75318660218621 1 7.20521593600787 6.93432500792242 1 6.06225410966638 7.95292871273427 1 4.77719818512263 8.78512250910942 1 3.38016878408503 9.41140047979562 1 1.90391109164668 9.81708319996855 1 0.383027336900355 9.9926618105081 1 -1.146834253984 9.93402089759675 1 -2.64981502196661 9.64253495453141 1 -4.09068637171339 9.1250361647655 1 -5.43567550001221 8.3936542613195 1 -6.65325700165565 7.46553221611963 1 -7.71489179821942 6.3624244232656 1 -8.59569606987201 5.11018679447111 1 -9.27502451102094 3.7381707184077 1 -9.73695423877779 2.27853508903139 1 -9.9706580118374 0.765492528364968 1 -9.97065801183741 -0.765492528364944 1 -9.73695423877779 -2.27853508903136 1 -9.27502451102095 -3.73817071840767 1 -8.59569606987202 -5.11018679447109 1 -7.71489179821944 -6.36242442326559 1 -6.65325700165567 -7.46553221611961 1 -5.43567550001222 -8.39365426131949 1 -4.09068637171341 -9.1250361647655 1 -2.64981502196662 -9.64253495453141 1 -1.14683425398401 -9.93402089759675 1 0.383027336900353 -9.9926618105081 1 1.90391109164669 -9.81708319996855 1 3.38016878408503 -9.41140047979561 1 4.77719818512264 -8.78512250910942 1 6.06225410966639 -7.95292871273426 1 7.20521593600788 -6.93432500792241 1 8.17929360766719 -5.75318660218619 1 8.96165556961057 -4.43719837866958 1 9.53396392054931 -3.0172059859519 1 9.88280423780349 -1.52649284218872 1 10 -2e-15 0 10 -2e-15 0 9.88280423780349 1.52649284218874 0 9.53396392054931 3.01720598595192 0 8.96165556961056 4.4371983786696 0 8.17929360766718 5.75318660218621 0 7.20521593600787 6.93432500792242 0 6.06225410966638 7.95292871273427 0 4.77719818512263 8.78512250910942 0 3.38016878408503 9.41140047979562 0 1.90391109164668 9.81708319996855 0 0.383027336900355 9.9926618105081 0 -1.146834253984 9.93402089759675 0 -2.64981502196661 9.64253495453141 0 -4.09068637171339 9.1250361647655 0 -5.43567550001221 8.3936542613195 0 -6.65325700165565 7.46553221611963 0 -7.71489179821942 6.3624244232656 0 -8.59569606987201 5.11018679447111 0 -9.27502451102094 3.7381707184077 0 -9.73695423877779 2.27853508903139 0 -9.9706580118374 0.765492528364968 0 -9.97065801183741 -0.765492528364944 0 -9.73695423877779 -2.27853508903136 0 -9.27502451102095 -3.73817071840767 0 -8.59569606987202 -5.11018679447109 0 -7.71489179821944 -6.36242442326559 0 -6.65325700165567 -7.46553221611961 0 -5.43567550001222 -8.39365426131949 0 -4.09068637171341 -9.1250361647655 0 -2.64981502196662 -9.64253495453141 0 -1.14683425398401 -9.93402089759675 0 0.383027336900353 -9.9926618105081 0 1.90391109164669 -9.81708319996855 0 3.38016878408503 -9.41140047979561 0 4.77719818512264 -8.78512250910942 0 6.06225410966639 -7.95292871273426 0 7.20521593600788 -6.93432500792241 0 8.17929360766719 -5.75318660218619 0 8.96165556961057 -4.43719837866958 0 9.53396392054931 -3.0172059859519 0 9.88280423780349 -1.52649284218872 0 0 1 6.28318530717959 1 0.153248422126331 1 0.306496844252663 1 0.459745266378994 1 0.612993688505326 1 0.766242110631657 1 0.919490532757988 1 1.07273895488432 1 1.22598737701065 1 1.37923579913698 1 1.53248422126331 1 1.68573264338964 1 1.83898106551598 1 1.99222948764231 1 2.14547790976864 1 2.29872633189497 1 2.4519747540213 1 2.60522317614763 1 2.75847159827396 1 2.9117200204003 1 3.06496844252663 1 3.21821686465296 1 3.37146528677929 1 3.52471370890562 1 3.67796213103195 1 3.83121055315828 1 3.98445897528461 1 4.13770739741095 1 4.29095581953728 1 4.44420424166361 1 4.59745266378994 1 4.75070108591627 1 4.9039495080426 1 5.05719793016894 1 5.21044635229527 1 5.3636947744216 1 5.51694319654793 1 5.67019161867426 1 5.82344004080059 1 5.97668846292693 1 6.12993688505326 1 6.28318530717959 0 0 0 0.153248422126331 0 0.306496844252663 0 0.459745266378994 0 0.612993688505326 0 0.766242110631657 0 0.919490532757988 0 1.07273895488432 0 1.22598737701065 0 1.37923579913698 0 1.53248422126331 0 1.68573264338964 0 1.83898106551598 0 1.99222948764231 0 2.14547790976864 0 2.29872633189497 0 2.4519747540213 0 2.60522317614763 0 2.75847159827396 0 2.9117200204003 0 3.06496844252663 0 3.21821686465296 0 3.37146528677929 0 3.52471370890562 0 3.67796213103195 0 3.83121055315828 0 3.98445897528461 0 4.13770739741095 0 4.29095581953728 0 4.44420424166361 0 4.59745266378994 0 4.75070108591627 0 4.9039495080426 0 5.05719793016894 0 5.21044635229527 0 5.3636947744216 0 5.51694319654793 0 5.67019161867426 0 5.82344004080059 0 5.97668846292693 0 6.12993688505326 0 21 62 63 21 20 62 42 41 83 42 83 84 22 63 64 2 42 84 2 84 43 22 21 63 23 64 65 3 44 45 3 1 44 23 22 64 24 65 66 4 45 46 24 23 65 4 3 45 25 66 67 25 24 66 5 46 47 5 4 46 26 67 68 26 25 67 6 5 47 6 47 48 27 68 69 27 26 68 7 6 48 7 48 49 28 69 70 28 27 69 8 7 49 8 49 50 29 70 71 29 28 70 9 8 50 9 50 51 30 71 72 10 9 51 30 29 71 10 51 52 31 30 72 31 72 73 11 10 52 11 52 53 32 31 73 32 73 74 12 11 53 12 53 54 33 32 74 33 74 75 13 12 54 13 54 55 34 33 75 34 75 76 14 13 55 14 55 56 35 34 76 35 76 77 15 14 56 15 56 57 36 35 77 36 77 78 16 15 57 16 57 58 37 36 78 37 78 79 17 16 58 17 58 59 38 37 79 38 79 80 18 17 59 18 59 60 39 38 80 39 80 81 19 18 60 19 60 61 40 39 81 40 81 82 20 61 62 20 19 61 41 40 82 41 82 83 
41 39 1 1.78329573330416e-15
10 -2e-15 1 9.88280423780349 1.52649284218874 1 9.53396392054931 3.01720598595192 1 8.96165556961056 4.4371983786696 1 8.17929360766718 5.75318660218621 1 7.20521593600787 6.93432500792242 1 6.06225410966638 7.95292871273427 1 4.77719818512263 8.78512250910942 1 3.38016878408503 9.41140047979562 1 1.90391109164668 9.81708319996855 1 0.383027336900355 9.9926618105081 1 -1.146834253984 9.93402089759675 1 -2.64981502196661 9.64253495453141 1 -4.09068637171339 9.1250361647655 1 -5.43567550001221 8.3936542613195 1 -6.65325700165565 7.46553221611963 1 -7.71489179821942 6.3624244232656 1 -8.59569606987201 5.11018679447111 1 -9.27502451102094 3.7381707184077 1 -9.73695423877779 2.27853508903139 1 -9.9706580118374 0.765492528364968 1 -9.97065801183741 -0.765492528364944 1 -9.73695423877779 -2.27853508903136 1 -9.27502451102095 -3.73817071840767 1 -8.59569606987202 -5.11018679447109 1 -7.71489179821944 -6.36242442326559 1 -6.65325700165567 -7.46553221611961 1 -5.43567550001222 -8.39365426131949 1 -4.09068637171341 -9.1250361647655 1 -2.64981502196662 -9.64253495453141 1 -1.14683425398401 -9.93402089759675 1 0.383027336900353 -9.9926618105081 1 1.90391109164669 -9.81708319996855 1 3.38016878408503 -9.41140047979561 1 4.77719818512264 -8.78512250910942 1 6.06225410966639 -7.95292871273426 1 7.20521593600788 -6.93432500792241 1 8.17929360766719 -5.75318660218619 1 8.96165556961057 -4.43719837866958 1 9.53396392054931 -3.0172059859519 1 9.88280423780349 -1.52649284218872 1 10 0 9.88280423780349 1.52649284218874 9.53396392054931 3.01720598595192 8.96165556961056 4.4371983786696 8.17929360766718 5.75318660218621 7.20521593600787 6.93432500792242 6.06225410966638 7.95292871273427 4.77719818512263 8.78512250910942 3.38016878408503 9.41140047979562 1.90391109164668 9.81708319996855 0.383027336900355 9.9926618105081 -1.146834253984 9.93402089759675 -2.64981502196661 9.64253495453141 -4.09068637171339 9.1250361647655 -5.43567550001221 8.3936542613195 -6.65325700165565 7.46553221611963 -7.71489179821942 6.3624244232656 -8.59569606987201 5.11018679447111 -9.27502451102094 3.7381707184077 -9.73695423877779 2.27853508903139 -9.9706580118374 0.765492528364968 -9.97065801183741 -0.765492528364943 -9.73695423877779 -2.27853508903136 -9.27502451102095 -3.73817071840767 -8.59569606987202 -5.11018679447109 -7.71489179821944 -6.36242442326559 -6.65325700165567 -7.46553221611961 -5.43567550001222 -8.39365426131949 -4.09068637171341 -9.1250361647655 -2.64981502196662 -9.64253495453141 -1.14683425398401 -9.93402089759675 0.383027336900353 -9.9926618105081 1.90391109164669 -9.81708319996855 3.38016878408503 -9.41140047979561 4.77719818512264 -8.78512250910942 6.06225410966639 -7.95292871273426 7.20521593600788 -6.93432500792241 8.17929360766719 -5.75318660218619 8.96165556961057 -4.43719837866958 9.53396392054931 -3.0172059859519 9.88280423780349 -1.52649284218872 10 11 12 10 14 34 10 12 14 3 41 2 29 25 26 29 26 27 29 27 28 8 9 10 6 39 41 6 3 4 6 4 5 6 8 10 6 7 8 6 10 34 6 38 39 6 34 38 6 41 3 22 23 24 32 30 31 21 24 25 21 22 24 33 29 30 33 30 32 19 20 21 19 25 29 19 21 25 16 17 18 38 34 35 38 35 36 38 36 37 15 18 19 15 19 29 15 16 18 14 33 34 14 29 33 14 15 29 41 39 40 12 13 14 2 41 1 
41 39 1 1.78329573330416e-15
10 -2e-15 0 9.88280423780349 1.52649284218874 0 9.53396392054931 3.01720598595192 0 8.96165556961056 4.4371983786696 0 8.17929360766718 5.75318660218621 0 7.20521593600787 6.93432500792242 0 6.06225410966638 7.95292871273427 0 4.77719818512263 8.78512250910942 0 3.38016878408503 9.41140047979562 0 1.90391109164668 9.81708319996855 0 0.383027336900355 9.9926618105081 0 -1.146834253984 9.93402089759675 0 -2.64981502196661 9.64253495453141 0 -4.09068637171339 9.1250361647655 0 -5.43567550001221 8.3936542613195 0 -6.65325700165565 7.46553221611963 0 -7.71489179821942 6.3624244232656 0 -8.59569606987201 5.11018679447111 0 -9.27502451102094 3.7381707184077 0 -9.73695423877779 2.27853508903139 0 -9.9706580118374 0.765492528364968 0 -9.97065801183741 -0.765492528364944 0 -9.73695423877779 -2.27853508903136 0 -9.27502451102095 -3.73817071840767 0 -8.59569606987202 -5.11018679447109 0 -7.71489179821944 -6.36242442326559 0 -6.65325700165567 -7.46553221611961 0 -5.43567550001222 -8.39365426131949 0 -4.09068637171341 -9.1250361647655 0 -2.64981502196662 -9.64253495453141 0 -1.14683425398401 -9.93402089759675 0 0.383027336900353 -9.9926618105081 0 1.90391109164669 -9.81708319996855 0 3.38016878408503 -9.41140047979561 0 4.77719818512264 -8.78512250910942 0 6.06225410966639 -7.95292871273426 0 7.20521593600788 -6.93432500792241 0 8.17929360766719 -5.75318660218619 0 8.96165556961057 -4.43719837866958 0 9.53396392054931 -3.0172059859519 0 9.88280423780349 -1.52649284218872 0 10 0 9.88280423780349 1.52649284218874 9.53396392054931 3.01720598595192 8.96165556961056 4.4371983786696 8.17929360766718 5.75318660218621 7.20521593600787 6.93432500792242 6.06225410966638 7.95292871273427 4.77719818512263 8.78512250910942 3.38016878408503 9.41140047979562 1.90391109164668 9.81708319996855 0.383027336900355 9.9926618105081 -1.146834253984 9.93402089759675 -2.64981502196661 9.64253495453141 -4.09068637171339 9.1250361647655 -5.43567550001221 8.3936542613195 -6.65325700165565 7.46553221611963 -7.71489179821942 6.3624244232656 -8.59569606987201 5.11018679447111 -9.27502451102094 3.7381707184077 -9.73695423877779 2.27853508903139 -9.9706580118374 0.765492528364968 -9.97065801183741 -0.765492528364943 -9.73695423877779 -2.27853508903136 -9.27502451102095 -3.73817071840767 -8.59569606987202 -5.11018679447109 -7.71489179821944 -6.36242442326559 -6.65325700165567 -7.46553221611961 -5.43567550001222 -8.39365426131949 -4.09068637171341 -9.1250361647655 -2.64981502196662 -9.64253495453141 -1.14683425398401 -9.93402089759675 0.383027336900353 -9.9926618105081 1.90391109164669 -9.81708319996855 3.38016878408503 -9.41140047979561 4.77719818512264 -8.78512250910942 6.06225410966639 -7.95292871273426 7.20521593600788 -6.93432500792241 8.17929360766719 -5.75318660218619 8.96165556961057 -4.43719837866958 9.53396392054931 -3.0172059859519 9.88280423780349 -1.52649284218872 10 11 12 10 14 34 10 12 14 3 41 2 29 25 26 29 26 27 29 27 28 8 9 10 6 39 41 6 3 4 6 4 5 6 8 10 6 7 8 6 10 34 6 38 39 6 34 38 6 41 3 22 23 24 32 30 31 21 24 25 21 22 24 33 29 30 33 30 32 19 20 21 19 25 29 19 21 25 16 17 18 38 34 35 38 35 36 38 36 37 15 18 19 15 19 29 15 16 18 14 33 34 14 29 33 14 15 29 41 39 40 12 13 14 2 41 1 

TShapes 60
Ve
1e-07
-15 -15 15
0 0

0101101
*
Ve
1e-07
-15 -15 -15
0 0

0101101
*
Ed
 1e-07 1 1 0
1  1 0 0 30
2  1 1 0 0 30
2  2 2 0 0 30
6  1 1 0
6  2 2 0
0

0101000
-60 3 +59 3 *
Ve
1e-07
-15 15 15
0 0

0101101
*
Ed
 1e-07 1 1 0
1  2 0 0 30
2  3 1 0 0 30
2  4 3 0 0 30
6  3 1 0
6  4 3 0
0

0101000
-57 3 +60 3 *
Ve
1e-07
-15 15 -15
0 0

0101101
*
Ed
 1e-07 1 1 0
1  3 0 0 30
2  5 1 0 0 30
2  6 4 0 0 30
6  5 1 0
6  6 4 0
0

0101000
-57 3 +55 3 *
Ed
 1e-07 1 1 0
1  4 0 0 30
2  7 1 0 0 30
2  8 5 0 0 30
6  7 1 0
6  8 5 0
0

0101000
-55 3 +59 3 *
Wi

0101100
-58 0 -56 0 +54 0 +53 0 *
Fa
0  1e-07 1 0
2  1
0101000
+52 0 *
Ve
1e-07
15 -15 -15
0 0

0101101
*
Ed
 1e-07 1 1 0
1  5 0 0 30
2  9 2 0 0 30
2  10 5 0 0 30
6  9 2 0
6  10 5 0
0

0101000
-50 3 +59 3 *
Ve
1e-07
15 -15 15
0 0

0101101
*
Ed
 1e-07 1 1 0
1  6 0 0 30
2  11 2 0 0 30
2  12 6 0 0 30
6  11 2 0
6  12 6 0
0

0101000
-48 3 +50 3 *
Ed
 1e-07 1 1 0
1  7 0 0 30
2  13 2 0 0 30
2  14 3 0 0 30
6  13 2 0
6  14 3 0
0

0101000
-48 3 +60 3 *
Wi

0101100
-49 0 -47 0 +46 0 +58 0 *
Fa
0  1e-07 2 0
2  2
0101000
+45 0 *
Ve
1e-07
15 15 15
0 0

0101101
*
Ed
 1e-07 1 1 0
1  8 0 0 30
2  15 3 0 0 30
2  16 4 0 0 30
6  15 3 0
6  16 4 0
0

0101000
-43 3 +57 3 *
Ed
 1e-07 1 1 0
1  9 0 0 30
2  17 3 0 0 30
2  18 6 0 0 30
6  17 3 0
6  18 6 0
0

0101000
-43 3 +48 3 *
Wi

0101100
-56 0 -42 0 +41 0 +46 0 *
Fa
0  1e-07 3 0
2  3
0101000
+40 0 *
Ve
1e-07
15 15 -15
0 0

0101101
*
Ed
 1e-07 1 1 0
1  10 0 0 30
2  19 4 0 0 30
2  20 5 0 0 30
6  19 4 0
6  20 5 0
0

0101000
-38 3 +55 3 *
Ed
 1e-07 1 1 0
1  11 0 0 30
2  21 4 0 0 30
2  22 6 0 0 30
6  21 4 0
6  22 6 0
0

0101000
-43 3 +38 3 *
Wi

0101100
-37 0 -36 0 +42 0 +54 0 *
Fa
0  1e-07 4 0
2  4
0101000
+35 0 *
Ed
 1e-07 1 1 0
1  12 0 0 30
2  23 5 0 0 30
2  24 6 0 0 30
6  23 5 0
6  24 6 0
0

0101000
-38 3 +50 3 *
Wi

0101100
-53 0 -37 0 +33 0 +49 0 *
Fa
0  1e-07 5 0
2  5
0101000
+32 0 *
Wi

0101100
-47 0 -41 0 +36 0 +33 0 *
Fa
0  1e-07 6 0
2  6
0101000
+30 0 *
Sh

0101100
-51 2 -44 2 +39 2 +34 2 -31 2 +29 2 *
Ve
1.50001e-07
10 -2e-15 -1
0 0

0101101
*
Ed
 1e-07 1 1 0
1  13 0 0 6.28318530717959
2  25 7 0 0 6.28318530717959
2  26 8 0 0 6.28318530717959
6  25 7 0
6  26 8 0
0

0101000
+27 7 -27 7 *
Ve
1.50001e-07
10 -2e-15 -2
0 0

0101101
*
Ed
 1e-07 1 1 0
1  14 0 0 1
3  27 28CN 7 0 0 1
7  27 28 7 0
0

0101000
-27 7 +25 7 *
Ed
 1e-07 1 1 0
1  15 0 0 6.28318530717959
2  29 7 0 0 6.28318530717959
2  30 9 0 0 6.28318530717959
6  29 7 0
6  30 9 0
0

0101000
+25 7 -25 7 *
Wi

0101100
-26 0 +24 0 +23 0 -24 0 *
Fa
0  1e-07 7 0
2  7
0101000
+22 0 *
Wi

0101100
+26 0 *
Fa
0  1e-07 8 0
2  8
0101000
+20 0 *
Wi

0101100
-23 0 *
Fa
0  1e-07 9 0
2  9
0101000
-18 0 *
Sh

0101100
-21 6 -19 6 +17 6 *
Ve
1.50001e-07
10 -2e-15 3
0 0

0101101
*
Ed
 1e-07 1 1 0
1  16 0 0 6.28318530717959
2  31 10 0 0 6.28318530717959
2  32 11 0 0 6.28318530717959
6  31 10 0
6  32 11 0
0

0101000
+15 10 -15 10 *
Ve
1.50001e-07
10 -2e-15 2
0 0

0101101
*
Ed
 1e-07 1 1 0
1  17 0 0 1
3  33 34CN 10 0 0 1
7  33 34 10 0
0

0101000
-15 10 +13 10 *
Ed
 1e-07 1 1 0
1  18 0 0 6.28318530717959
2  35 10 0 0 6.28318530717959
2  36 12 0 0 6.28318530717959
6  35 10 0
6  36 12 0
0

0101000
+13 10 -13 10 *
Wi

0101100
-14 0 +12 0 +11 0 -12 0 *
Fa
0  1e-07 10 0
2  10
0101000
+10 0 *
Wi

0101100
+14 0 *
Fa
0  1e-07 11 0
2  11
0101000
+8 0 *
Wi

0101100
-11 0 *
Fa
0  1e-07 12 0
2  12
0101000
-6 0 *
Sh

0101100
-9 9 -7 9 +5 9 *
So

0100000
+28 0 +16 0 +4 0 *
Co

0100000
+3 0 *
Co

1100000
+2 1 *

+1 0 